<svg xmlns="http://www.w3.org/2000/svg" width="48.355" height="73" viewBox="0 0 48.355 73">
  <g>
    <path fill="rgb(255,255,255)" fill-rule="evenodd" d="M33.43110948 33.93454125l-3.97283817 3.7354491c-.19932089.18385666-.50582909.17646143-.69631097-.01680013-.19048189-.19326157-.19777075-.5042426-.0165585-.70647216l3.68172217-4.03081333c.18102255-.19842358.17516611-.50651125-.0132627-.69770546l-.0828918-.08410143c-.18844426-.19117852-.4921007-.19712043-.68767036-.01345623l-3.97283817 3.7354491c-.19932089.18385666-.50582909.17646143-.69631098-.01680013-.19048188-.19326157-.19777074-.5042426-.0165585-.70647216l3.68172217-4.03081333c.18441185-.19912313.17853626-.51116266-.01323712-.70299412-.19177337-.19183145-.49937725-.19336631-.693001-.00345789l-4.54247062 4.38942183c-.96705316.93870915-1.23410858 2.39968515-.6631344 3.62779927l-2.53052086 2.4470152-2.12203006-2.0534205c.96484173-1.67836811.69446405-3.80554754-.65849246-5.18064808-1.64855211-1.67260924-6.10547839-3.482472-7.75336736-1.81053558-1.64788898 1.67193642.13594255 6.1945749 1.78449466 7.86651133 1.35532248 1.37270004 3.4519067 1.64702331 5.10613485.66810176l1.98940319 2.11464635-9.78189548 9.45098228c-.41605477.3837033-.59030325.96852977-.45342544 1.52182212.1368778.55329235.56268098.98530921 1.10801533 1.12418446.54533435.13887525 1.12174925-.03791602 1.49993376-.46004222l9.27923961-9.87687191 9.2772502 9.87687191c.37818452.4221262.95459942.59891747 1.49993377.46004222.54533435-.13887525.97113752-.5708921 1.10801533-1.12418446.1368778-.55329235-.03737068-1.13811881-.45342544-1.52182212l-9.77526414-9.45434633 2.37402114-2.52707977c1.21045016.57930634 2.65041296.30835382 3.57562067-.67281144l4.32363626-4.61010397c.18717697-.19644929.18566419-.508542-.00340816-.7031139-.18907234-.1945719-.49662381-.20053323-.69288295-.01343028h.00265253z"/>
    <path fill="rgb(255,255,255)" fill-rule="evenodd" d="M41.66390991 12.87957764l6.68374634 58.80844116c.03781128.33343506-.06643677.66738891-.28656006.91796875-.22009277.25054932-.53515625.39389038-.8659668.39401245H1.16033936c-.32400513.0003357-.63334656-.13693237-.85307312-.37854004-.21972657-.24157715-.3297577-.5654602-.30343628-.89309692l4.64195251-58.80841065c.04837036-.61169433.55166626-1.08309936 1.15649414-1.08322143H8.2074585c.32589721-3.71139527 2.20703125-7.1020813 5.16522216-9.31018067C16.33084106.31845093 20.08120728-.49438477 23.67044067.29464722c3.58920288-.78903199 7.3395691.0238037 10.29776001 2.23190307 2.95819092 2.20809937 4.83929444 5.5987854 5.16519165 9.31018067h1.37799073c.58145141-.0018921 1.07284546.43667602 1.14523315 1.02200317.00134277.00738525.0072937.01342774.0072937.0208435zm-28.0664978-1.0421753c.33200073-3.66412353 2.1793518-7.0137329 5.08358765-9.2175293l.00067138-.00134277c-4.37301635.99932862-7.64205932 4.69955445-8.1446228 9.21887207h3.06036377zm20.14535522-.00067138h3.06036377c-.50320434-4.51852417-3.77172851-8.21792603-8.14395141-9.2175293 2.90429687 2.20373535 4.75164795 5.55337524 5.08358764 9.2175293zM23.6697693 2.724823c4.18270874 1.131958 7.25518799 4.74771118 7.74276733 9.11187744H15.92767334c.48730469-4.3640747 3.5595398-7.9798584 7.74209595-9.11187744zM6.87322998 14.19223022h32.4717102L39.0796814 70.645813H2.41763306l4.45559692-56.45358277zm34.70513916 18.49020386l-.18035889 37.96270752h4.49472046l-4.31436157-37.96270752z"/>
  </g>
</svg>
