<svg xmlns="http://www.w3.org/2000/svg" width="64" height="72" viewBox="0 0 64 72">
  <path fill="rgb(255,255,255)" fill-rule="evenodd" d="M63.88796606 18.11822542C63.9587832 18.24226005 64 18.3884639 64 18.54459054c0 .03874904-.01691225.07197149-.02113643.1096529v9.66823265c0 2.33561922-1.56515168 4.2870137-3.65237778 4.7853503V64.4647862h1.41825273c.43752871 0 .7926238.3721039.7926238.83056102v5.87402896c0 .45851992-.35509509.83062382-.7926238.83062382H2.23517333c-.43752094 0-.79261603-.3721039-.79261603-.83062382v-5.87402896c0-.45845712.35509509-.83056102.79261603-.83056102h1.66449755V33.1587591C1.8568375 32.82653469 0 31.18419056 0 28.32247609v-9.77788555c0-.05758975.02113643-.10852246.03170464-.16278368.0028653-.01400492.00271-.02800985.0025547-.04201477-.00018636-.01701944-.00037272-.03403887.00484538-.0509955L3.65342607 6.5739611V4.50738713C3.65342607 2.02223552 5.583185 0 7.95468907 0h48.07054147c2.37150407 0 4.30125525 2.02223552 4.30125525 4.50738713V6.5739611l3.56148027 11.54426432zM7.95468907 1.66118484c-1.49751822 0-2.71603094 1.27689728-2.71603094 2.84620229V5.8750966h53.50153954V4.50738713c0-1.569305-1.21852048-2.8462023-2.71602317-2.8462023H7.95468907zm-2.9316194 5.8751594h53.93271646l3.1398233 10.17768528H1.88325414L5.02306968 7.53634424zm41.77313624 12.35077203c-.00072992-.25874566-.0012424-.43748113-.0012424-.51196472v-.00219808h-6.21516576v8.94726173c0 .24806927.02536061.47623019.0612972.69440553.43647266 1.25366042.97861193 2.27363331 2.58498043 2.51504553.11096236.01438173.2208842.0243673.33184657.02769583.04016077.00219808.08137758.00885513.12046677.00885513.16697933 0 .33395866-.01664262.50093799-.04207757.0750413-.01218365.15006708-.03102436.22616443-.04873462.08032153-.01771026.15957149-.03874905.23778093-.06204872.11731416-.0376186.2346128-.08082661.3508709-.13288976.02113644-.00885513.04121682-.0188407.06235325-.02876347 1.01982874-.49174237 1.36434785-1.21158285 1.67083382-2.2038599.0934755-.51227874.07451328-7.18038055.06887587-9.1607269zm-7.80058418-.51190191c0 .07448358.0005125.25315625.0012424.51183911.00563742 1.9841773.02455305 8.64869938-.06889139 9.1607897-.3128067 1.01111777-.69537449 1.78189095-1.73317153 2.23268618-.36567107.1661122-.86553748.28462023-1.31469822.28568787-2.22354907-.00772469-3.09753491-2.02223552-3.09753491-3.24487158v-8.94726173h6.21305365v.00113045zm-37.40933362 0v8.94726173c0 2.24260895 1.55247138 3.24600202 3.08908656 3.24600202 1.50491053 0 3.12395933-1.01557673 3.12395933-3.24600202v-8.94726173H1.58628811zm14.01343594 8.94726173c0 4.29147266-6.21410194 4.38002397-6.21410194 0v-8.94726173h6.21410194v8.94726173zm1.58523207 0c0 4.3888791 6.21305365 4.28368517 6.21305365 0v-8.94726173h-6.21305365v8.94726173zm14.01239542-8.94726173h-6.2141097v8.94726173c0 2.24260895 1.55246361 3.24600202 3.0901426 3.24600202 1.50491054 0 3.1239671-1.01557673 3.1239671-3.24600202v-8.94726173zm23.3969382 8.94726173c0 3.81411203-5.14354421 4.43541564-6.07673069.90039722-.080306-.28794875-.13632297-.58588308-.13632297-.90039722v-8.94726173h6.21305366v8.94726173zm1.58523206 0c0 4.30252587 6.2141097 4.30139543 6.2141097 0v-8.94726173h-6.2141097v8.94726173zm-1.58100788 18.39725623V32.03352947c-2.06820177 1.86943742-5.4373421 1.50505821-6.99086177-.92250365-.59287601.9291607-1.49435009 1.5637784-2.4518256 1.87050506-.16592328.05539167-.33184657.1019282-.4988259.13841637-.05811353.01218365-.11624258.02662819-.17542769.03655096v13.56323411h10.11694096zM25.67650424 64.46585384V43.93997491c0-.45851992-.35509509-.83062382-.79260827-.83062382H12.70297743c-.43752094 0-.79261603.3721039-.79261603.83062382V64.4647234H5.48595123V33.156561c1.22696884-.20599169 2.37361616-.88488504 3.10387895-2.0056557 1.80399642 2.78861254 6.00803342 2.74873305 7.799334 0 1.80400419 2.78861254 6.00802565 2.74873305 7.79828573 0 1.527103 2.36004934 4.89096312 2.77310036 7.01305423.91364852v15.48580231c0 .45845712.3550951.83056102.7926238.83056102H43.6709964c.00633627 0 .0116165.00332852.01795276.00332852.0063518 0 .01163203-.00332852.0179683-.00332852h11.68422026c.43751318 0 .79260826-.3721039.79260826-.83056102V31.98259677c.6996142.65232796 1.57995185 1.07869309 2.55750774 1.1993992v31.28385787H25.67650424zm7.10923197-17.74612152V32.07786793c2.233069 1.95246211 5.57260903 1.26584407 7.0003817-.92696262.65522926 1.01331584 1.65180949 1.6545906 2.73821565 1.9225682.03910472.00998557.07820944.02323687.11731416.03322244.08454571.0188407.16803538.03987949.25363713.05313079v13.55990558H32.78573621zM13.49559346 64.46585384h10.59567871v-19.6952551h-10.5956787v19.6952551zm47.45652126 5.87402896H3.02778936v-4.21284412h57.92326932l.00105604 4.21284412z"/>
</svg>
